<svg width="1613" height="58" viewBox="0 0 1613 58" fill="none" xmlns="http://www.w3.org/2000/svg">
<path d="M64 7L1540 6.99987" stroke="#5C5757" stroke-width="14" stroke-linecap="round"/>
<path d="M12.6562 41.9688V44.9219C12.6562 46.2031 12.5195 47.3086 12.2461 48.2383C11.9727 49.1602 11.5781 49.918 11.0625 50.5117C10.5547 51.0977 9.94922 51.5312 9.24609 51.8125C8.54297 52.0938 7.76172 52.2344 6.90234 52.2344C6.21484 52.2344 5.57422 52.1484 4.98047 51.9766C4.38672 51.7969 3.85156 51.5195 3.375 51.1445C2.90625 50.7695 2.5 50.2969 2.15625 49.7266C1.82031 49.1484 1.5625 48.4609 1.38281 47.6641C1.20312 46.8672 1.11328 45.9531 1.11328 44.9219V41.9688C1.11328 40.6875 1.25 39.5898 1.52344 38.6758C1.80469 37.7539 2.19922 37 2.70703 36.4141C3.22266 35.8281 3.83203 35.3984 4.53516 35.125C5.23828 34.8438 6.01953 34.7031 6.87891 34.7031C7.56641 34.7031 8.20312 34.793 8.78906 34.9727C9.38281 35.1445 9.91797 35.4141 10.3945 35.7812C10.8711 36.1484 11.2773 36.6211 11.6133 37.1992C11.9492 37.7695 12.207 38.4531 12.3867 39.25C12.5664 40.0391 12.6562 40.9453 12.6562 41.9688ZM9.26953 45.3672V41.5117C9.26953 40.8945 9.23438 40.3555 9.16406 39.8945C9.10156 39.4336 9.00391 39.043 8.87109 38.7227C8.73828 38.3945 8.57422 38.1289 8.37891 37.9258C8.18359 37.7227 7.96094 37.5742 7.71094 37.4805C7.46094 37.3867 7.18359 37.3398 6.87891 37.3398C6.49609 37.3398 6.15625 37.4141 5.85938 37.5625C5.57031 37.7109 5.32422 37.9492 5.12109 38.2773C4.91797 38.5977 4.76172 39.0273 4.65234 39.5664C4.55078 40.0977 4.5 40.7461 4.5 41.5117V45.3672C4.5 45.9844 4.53125 46.5273 4.59375 46.9961C4.66406 47.4648 4.76562 47.8672 4.89844 48.2031C5.03906 48.5312 5.20312 48.8008 5.39062 49.0117C5.58594 49.2148 5.80859 49.3633 6.05859 49.457C6.31641 49.5508 6.59766 49.5977 6.90234 49.5977C7.27734 49.5977 7.60938 49.5234 7.89844 49.375C8.19531 49.2188 8.44531 48.9766 8.64844 48.6484C8.85938 48.3125 9.01562 47.875 9.11719 47.3359C9.21875 46.7969 9.26953 46.1406 9.26953 45.3672ZM24.8597 34.9023V52H21.4847V38.793L17.43 40.082V37.4219L24.4964 34.9023H24.8597ZM39.5241 34.9375L33.2663 53.4648H30.7584L37.0163 34.9375H39.5241ZM54.165 41.9688V44.9219C54.165 46.2031 54.0283 47.3086 53.7548 48.2383C53.4814 49.1602 53.0869 49.918 52.5713 50.5117C52.0634 51.0977 51.458 51.5312 50.7548 51.8125C50.0517 52.0938 49.2705 52.2344 48.4111 52.2344C47.7236 52.2344 47.083 52.1484 46.4892 51.9766C45.8955 51.7969 45.3603 51.5195 44.8838 51.1445C44.415 50.7695 44.0088 50.2969 43.665 49.7266C43.3291 49.1484 43.0713 48.4609 42.8916 47.6641C42.7119 46.8672 42.622 45.9531 42.622 44.9219V41.9688C42.622 40.6875 42.7588 39.5898 43.0322 38.6758C43.3134 37.7539 43.708 37 44.2158 36.4141C44.7314 35.8281 45.3408 35.3984 46.0439 35.125C46.747 34.8438 47.5283 34.7031 48.3877 34.7031C49.0752 34.7031 49.7119 34.793 50.2978 34.9727C50.8916 35.1445 51.4267 35.4141 51.9033 35.7812C52.3798 36.1484 52.7861 36.6211 53.122 37.1992C53.458 37.7695 53.7158 38.4531 53.8955 39.25C54.0752 40.0391 54.165 40.9453 54.165 41.9688ZM50.7783 45.3672V41.5117C50.7783 40.8945 50.7431 40.3555 50.6728 39.8945C50.6103 39.4336 50.5127 39.043 50.3798 38.7227C50.247 38.3945 50.083 38.1289 49.8877 37.9258C49.6923 37.7227 49.4697 37.5742 49.2197 37.4805C48.9697 37.3867 48.6923 37.3398 48.3877 37.3398C48.0048 37.3398 47.665 37.4141 47.3681 37.5625C47.0791 37.7109 46.833 37.9492 46.6298 38.2773C46.4267 38.5977 46.2705 39.0273 46.1611 39.5664C46.0595 40.0977 46.0088 40.7461 46.0088 41.5117V45.3672C46.0088 45.9844 46.04 46.5273 46.1025 46.9961C46.1728 47.4648 46.2744 47.8672 46.4072 48.2031C46.5478 48.5312 46.7119 48.8008 46.8994 49.0117C47.0947 49.2148 47.3173 49.3633 47.5673 49.457C47.8252 49.5508 48.1064 49.5977 48.4111 49.5977C48.7861 49.5977 49.1181 49.5234 49.4072 49.375C49.7041 49.2188 49.9541 48.9766 50.1572 48.6484C50.3681 48.3125 50.5244 47.875 50.6259 47.3359C50.7275 46.7969 50.7783 46.1406 50.7783 45.3672ZM66.3684 34.9023V52H62.9934V38.793L58.9388 40.082V37.4219L66.0052 34.9023H66.3684ZM81.0328 34.9375L74.775 53.4648H72.2672L78.525 34.9375H81.0328ZM95.8613 49.3633V52H84.1894V49.75L89.7089 43.832C90.2636 43.2148 90.7011 42.6719 91.0214 42.2031C91.3417 41.7266 91.5722 41.3008 91.7128 40.9258C91.8613 40.543 91.9355 40.1797 91.9355 39.8359C91.9355 39.3203 91.8495 38.8789 91.6777 38.5117C91.5058 38.1367 91.2519 37.8477 90.9159 37.6445C90.5878 37.4414 90.1816 37.3398 89.6972 37.3398C89.1816 37.3398 88.7363 37.4648 88.3613 37.7148C87.9941 37.9648 87.7128 38.3125 87.5175 38.7578C87.33 39.2031 87.2363 39.707 87.2363 40.2695H83.8495C83.8495 39.2539 84.0917 38.3242 84.5761 37.4805C85.0605 36.6289 85.7441 35.9531 86.6269 35.4531C87.5097 34.9453 88.5566 34.6914 89.7675 34.6914C90.9628 34.6914 91.9706 34.8867 92.7909 35.2773C93.6191 35.6602 94.2441 36.2148 94.6659 36.9414C95.0956 37.6602 95.3105 38.5195 95.3105 39.5195C95.3105 40.082 95.2206 40.6328 95.0409 41.1719C94.8613 41.7031 94.6034 42.2344 94.2675 42.7656C93.9394 43.2891 93.5409 43.8203 93.0722 44.3594C92.6034 44.8984 92.0839 45.457 91.5136 46.0352L88.5488 49.3633H95.8613ZM111.135 41.9688V44.9219C111.135 46.2031 110.998 47.3086 110.725 48.2383C110.451 49.1602 110.057 49.918 109.541 50.5117C109.033 51.0977 108.428 51.5312 107.725 51.8125C107.022 52.0938 106.24 52.2344 105.381 52.2344C104.694 52.2344 104.053 52.1484 103.459 51.9766C102.865 51.7969 102.33 51.5195 101.854 51.1445C101.385 50.7695 100.979 50.2969 100.635 49.7266C100.299 49.1484 100.041 48.4609 99.8616 47.6641C99.6819 46.8672 99.592 45.9531 99.592 44.9219V41.9688C99.592 40.6875 99.7288 39.5898 100.002 38.6758C100.283 37.7539 100.678 37 101.186 36.4141C101.701 35.8281 102.311 35.3984 103.014 35.125C103.717 34.8438 104.498 34.7031 105.358 34.7031C106.045 34.7031 106.682 34.793 107.268 34.9727C107.862 35.1445 108.397 35.4141 108.873 35.7812C109.35 36.1484 109.756 36.6211 110.092 37.1992C110.428 37.7695 110.686 38.4531 110.865 39.25C111.045 40.0391 111.135 40.9453 111.135 41.9688ZM107.748 45.3672V41.5117C107.748 40.8945 107.713 40.3555 107.643 39.8945C107.58 39.4336 107.483 39.043 107.35 38.7227C107.217 38.3945 107.053 38.1289 106.858 37.9258C106.662 37.7227 106.44 37.5742 106.19 37.4805C105.94 37.3867 105.662 37.3398 105.358 37.3398C104.975 37.3398 104.635 37.4141 104.338 37.5625C104.049 37.7109 103.803 37.9492 103.6 38.2773C103.397 38.5977 103.24 39.0273 103.131 39.5664C103.03 40.0977 102.979 40.7461 102.979 41.5117V45.3672C102.979 45.9844 103.01 46.5273 103.073 46.9961C103.143 47.4648 103.244 47.8672 103.377 48.2031C103.518 48.5312 103.682 48.8008 103.869 49.0117C104.065 49.2148 104.287 49.3633 104.537 49.457C104.795 49.5508 105.076 49.5977 105.381 49.5977C105.756 49.5977 106.088 49.5234 106.377 49.375C106.674 49.2188 106.924 48.9766 107.127 48.6484C107.338 48.3125 107.494 47.875 107.596 47.3359C107.698 46.7969 107.748 46.1406 107.748 45.3672ZM123.338 34.9023V52H119.963V38.793L115.909 40.082V37.4219L122.975 34.9023H123.338ZM142.245 49.3633V52H130.573V49.75L136.093 43.832C136.647 43.2148 137.085 42.6719 137.405 42.2031C137.725 41.7266 137.956 41.3008 138.097 40.9258C138.245 40.543 138.319 40.1797 138.319 39.8359C138.319 39.3203 138.233 38.8789 138.061 38.5117C137.89 38.1367 137.636 37.8477 137.3 37.6445C136.972 37.4414 136.565 37.3398 136.081 37.3398C135.565 37.3398 135.12 37.4648 134.745 37.7148C134.378 37.9648 134.097 38.3125 133.901 38.7578C133.714 39.2031 133.62 39.707 133.62 40.2695H130.233C130.233 39.2539 130.475 38.3242 130.96 37.4805C131.444 36.6289 132.128 35.9531 133.011 35.4531C133.893 34.9453 134.94 34.6914 136.151 34.6914C137.347 34.6914 138.354 34.8867 139.175 35.2773C140.003 35.6602 140.628 36.2148 141.05 36.9414C141.479 37.6602 141.694 38.5195 141.694 39.5195C141.694 40.082 141.604 40.6328 141.425 41.1719C141.245 41.7031 140.987 42.2344 140.651 42.7656C140.323 43.2891 139.925 43.8203 139.456 44.3594C138.987 44.8984 138.468 45.457 137.897 46.0352L134.932 49.3633H142.245Z" fill="#C1BBBB"/>
<path d="M1481.66 41.9688V44.9219C1481.66 46.2031 1481.52 47.3086 1481.25 48.2383C1480.97 49.1602 1480.58 49.918 1480.06 50.5117C1479.55 51.0977 1478.95 51.5312 1478.25 51.8125C1477.54 52.0938 1476.76 52.2344 1475.9 52.2344C1475.21 52.2344 1474.57 52.1484 1473.98 51.9766C1473.39 51.7969 1472.85 51.5195 1472.38 51.1445C1471.91 50.7695 1471.5 50.2969 1471.16 49.7266C1470.82 49.1484 1470.56 48.4609 1470.38 47.6641C1470.2 46.8672 1470.11 45.9531 1470.11 44.9219V41.9688C1470.11 40.6875 1470.25 39.5898 1470.52 38.6758C1470.8 37.7539 1471.2 37 1471.71 36.4141C1472.22 35.8281 1472.83 35.3984 1473.54 35.125C1474.24 34.8438 1475.02 34.7031 1475.88 34.7031C1476.57 34.7031 1477.2 34.793 1477.79 34.9727C1478.38 35.1445 1478.92 35.4141 1479.39 35.7812C1479.87 36.1484 1480.28 36.6211 1480.61 37.1992C1480.95 37.7695 1481.21 38.4531 1481.39 39.25C1481.57 40.0391 1481.66 40.9453 1481.66 41.9688ZM1478.27 45.3672V41.5117C1478.27 40.8945 1478.23 40.3555 1478.16 39.8945C1478.1 39.4336 1478 39.043 1477.87 38.7227C1477.74 38.3945 1477.57 38.1289 1477.38 37.9258C1477.18 37.7227 1476.96 37.5742 1476.71 37.4805C1476.46 37.3867 1476.18 37.3398 1475.88 37.3398C1475.5 37.3398 1475.16 37.4141 1474.86 37.5625C1474.57 37.7109 1474.32 37.9492 1474.12 38.2773C1473.92 38.5977 1473.76 39.0273 1473.65 39.5664C1473.55 40.0977 1473.5 40.7461 1473.5 41.5117V45.3672C1473.5 45.9844 1473.53 46.5273 1473.59 46.9961C1473.66 47.4648 1473.77 47.8672 1473.9 48.2031C1474.04 48.5312 1474.2 48.8008 1474.39 49.0117C1474.59 49.2148 1474.81 49.3633 1475.06 49.457C1475.32 49.5508 1475.6 49.5977 1475.9 49.5977C1476.28 49.5977 1476.61 49.5234 1476.9 49.375C1477.2 49.2188 1477.45 48.9766 1477.65 48.6484C1477.86 48.3125 1478.02 47.875 1478.12 47.3359C1478.22 46.7969 1478.27 46.1406 1478.27 45.3672ZM1497.31 49.3633V52H1485.63V49.75L1491.15 43.832C1491.71 43.2148 1492.14 42.6719 1492.47 42.2031C1492.79 41.7266 1493.02 41.3008 1493.16 40.9258C1493.31 40.543 1493.38 40.1797 1493.38 39.8359C1493.38 39.3203 1493.29 38.8789 1493.12 38.5117C1492.95 38.1367 1492.7 37.8477 1492.36 37.6445C1492.03 37.4414 1491.63 37.3398 1491.14 37.3398C1490.63 37.3398 1490.18 37.4648 1489.81 37.7148C1489.44 37.9648 1489.16 38.3125 1488.96 38.7578C1488.77 39.2031 1488.68 39.707 1488.68 40.2695H1485.29C1485.29 39.2539 1485.54 38.3242 1486.02 37.4805C1486.5 36.6289 1487.19 35.9531 1488.07 35.4531C1488.95 34.9453 1490 34.6914 1491.21 34.6914C1492.41 34.6914 1493.41 34.8867 1494.23 35.2773C1495.06 35.6602 1495.69 36.2148 1496.11 36.9414C1496.54 37.6602 1496.75 38.5195 1496.75 39.5195C1496.75 40.082 1496.66 40.6328 1496.48 41.1719C1496.31 41.7031 1496.05 42.2344 1495.71 42.7656C1495.38 43.2891 1494.98 43.8203 1494.52 44.3594C1494.05 44.8984 1493.53 45.457 1492.96 46.0352L1489.99 49.3633H1497.31ZM1508.52 34.9375L1502.27 53.4648H1499.76L1506.02 34.9375H1508.52ZM1523.17 41.9688V44.9219C1523.17 46.2031 1523.03 47.3086 1522.75 48.2383C1522.48 49.1602 1522.09 49.918 1521.57 50.5117C1521.06 51.0977 1520.46 51.5312 1519.75 51.8125C1519.05 52.0938 1518.27 52.2344 1517.41 52.2344C1516.72 52.2344 1516.08 52.1484 1515.49 51.9766C1514.9 51.7969 1514.36 51.5195 1513.88 51.1445C1513.42 50.7695 1513.01 50.2969 1512.67 49.7266C1512.33 49.1484 1512.07 48.4609 1511.89 47.6641C1511.71 46.8672 1511.62 45.9531 1511.62 44.9219V41.9688C1511.62 40.6875 1511.76 39.5898 1512.03 38.6758C1512.31 37.7539 1512.71 37 1513.22 36.4141C1513.73 35.8281 1514.34 35.3984 1515.04 35.125C1515.75 34.8438 1516.53 34.7031 1517.39 34.7031C1518.08 34.7031 1518.71 34.793 1519.3 34.9727C1519.89 35.1445 1520.43 35.4141 1520.9 35.7812C1521.38 36.1484 1521.79 36.6211 1522.12 37.1992C1522.46 37.7695 1522.72 38.4531 1522.9 39.25C1523.08 40.0391 1523.17 40.9453 1523.17 41.9688ZM1519.78 45.3672V41.5117C1519.78 40.8945 1519.74 40.3555 1519.67 39.8945C1519.61 39.4336 1519.51 39.043 1519.38 38.7227C1519.25 38.3945 1519.08 38.1289 1518.89 37.9258C1518.69 37.7227 1518.47 37.5742 1518.22 37.4805C1517.97 37.3867 1517.69 37.3398 1517.39 37.3398C1517 37.3398 1516.67 37.4141 1516.37 37.5625C1516.08 37.7109 1515.83 37.9492 1515.63 38.2773C1515.43 38.5977 1515.27 39.0273 1515.16 39.5664C1515.06 40.0977 1515.01 40.7461 1515.01 41.5117V45.3672C1515.01 45.9844 1515.04 46.5273 1515.1 46.9961C1515.17 47.4648 1515.27 47.8672 1515.41 48.2031C1515.55 48.5312 1515.71 48.8008 1515.9 49.0117C1516.09 49.2148 1516.32 49.3633 1516.57 49.457C1516.83 49.5508 1517.11 49.5977 1517.41 49.5977C1517.79 49.5977 1518.12 49.5234 1518.41 49.375C1518.7 49.2188 1518.95 48.9766 1519.16 48.6484C1519.37 48.3125 1519.52 47.875 1519.63 47.3359C1519.73 46.7969 1519.78 46.1406 1519.78 45.3672ZM1539.1 45.625V48.2734H1526.8L1526.64 46.2227L1533.75 34.9375H1536.43L1533.53 39.8008L1529.99 45.625H1539.1ZM1537.16 34.9375V52H1533.79V34.9375H1537.16ZM1550.03 34.9375L1543.78 53.4648H1541.27L1547.53 34.9375H1550.03ZM1564.86 49.3633V52H1553.19V49.75L1558.71 43.832C1559.26 43.2148 1559.7 42.6719 1560.02 42.2031C1560.34 41.7266 1560.57 41.3008 1560.71 40.9258C1560.86 40.543 1560.94 40.1797 1560.94 39.8359C1560.94 39.3203 1560.85 38.8789 1560.68 38.5117C1560.51 38.1367 1560.25 37.8477 1559.92 37.6445C1559.59 37.4414 1559.18 37.3398 1558.7 37.3398C1558.18 37.3398 1557.74 37.4648 1557.36 37.7148C1556.99 37.9648 1556.71 38.3125 1556.52 38.7578C1556.33 39.2031 1556.24 39.707 1556.24 40.2695H1552.85C1552.85 39.2539 1553.09 38.3242 1553.58 37.4805C1554.06 36.6289 1554.74 35.9531 1555.63 35.4531C1556.51 34.9453 1557.56 34.6914 1558.77 34.6914C1559.96 34.6914 1560.97 34.8867 1561.79 35.2773C1562.62 35.6602 1563.24 36.2148 1563.67 36.9414C1564.1 37.6602 1564.31 38.5195 1564.31 39.5195C1564.31 40.082 1564.22 40.6328 1564.04 41.1719C1563.86 41.7031 1563.6 42.2344 1563.27 42.7656C1562.94 43.2891 1562.54 43.8203 1562.07 44.3594C1561.6 44.8984 1561.08 45.457 1560.51 46.0352L1557.55 49.3633H1564.86ZM1580.14 41.9688V44.9219C1580.14 46.2031 1580 47.3086 1579.72 48.2383C1579.45 49.1602 1579.06 49.918 1578.54 50.5117C1578.03 51.0977 1577.43 51.5312 1576.72 51.8125C1576.02 52.0938 1575.24 52.2344 1574.38 52.2344C1573.69 52.2344 1573.05 52.1484 1572.46 51.9766C1571.87 51.7969 1571.33 51.5195 1570.85 51.1445C1570.39 50.7695 1569.98 50.2969 1569.64 49.7266C1569.3 49.1484 1569.04 48.4609 1568.86 47.6641C1568.68 46.8672 1568.59 45.9531 1568.59 44.9219V41.9688C1568.59 40.6875 1568.73 39.5898 1569 38.6758C1569.28 37.7539 1569.68 37 1570.19 36.4141C1570.7 35.8281 1571.31 35.3984 1572.01 35.125C1572.72 34.8438 1573.5 34.7031 1574.36 34.7031C1575.05 34.7031 1575.68 34.793 1576.27 34.9727C1576.86 35.1445 1577.4 35.4141 1577.87 35.7812C1578.35 36.1484 1578.76 36.6211 1579.09 37.1992C1579.43 37.7695 1579.69 38.4531 1579.87 39.25C1580.05 40.0391 1580.14 40.9453 1580.14 41.9688ZM1576.75 45.3672V41.5117C1576.75 40.8945 1576.71 40.3555 1576.64 39.8945C1576.58 39.4336 1576.48 39.043 1576.35 38.7227C1576.22 38.3945 1576.05 38.1289 1575.86 37.9258C1575.66 37.7227 1575.44 37.5742 1575.19 37.4805C1574.94 37.3867 1574.66 37.3398 1574.36 37.3398C1573.97 37.3398 1573.64 37.4141 1573.34 37.5625C1573.05 37.7109 1572.8 37.9492 1572.6 38.2773C1572.4 38.5977 1572.24 39.0273 1572.13 39.5664C1572.03 40.0977 1571.98 40.7461 1571.98 41.5117V45.3672C1571.98 45.9844 1572.01 46.5273 1572.07 46.9961C1572.14 47.4648 1572.24 47.8672 1572.38 48.2031C1572.52 48.5312 1572.68 48.8008 1572.87 49.0117C1573.06 49.2148 1573.29 49.3633 1573.54 49.457C1573.8 49.5508 1574.08 49.5977 1574.38 49.5977C1574.76 49.5977 1575.09 49.5234 1575.38 49.375C1575.67 49.2188 1575.92 48.9766 1576.13 48.6484C1576.34 48.3125 1576.49 47.875 1576.6 47.3359C1576.7 46.7969 1576.75 46.1406 1576.75 45.3672ZM1595.78 49.3633V52H1584.11V49.75L1589.63 43.832C1590.19 43.2148 1590.62 42.6719 1590.94 42.2031C1591.26 41.7266 1591.49 41.3008 1591.64 40.9258C1591.78 40.543 1591.86 40.1797 1591.86 39.8359C1591.86 39.3203 1591.77 38.8789 1591.6 38.5117C1591.43 38.1367 1591.17 37.8477 1590.84 37.6445C1590.51 37.4414 1590.1 37.3398 1589.62 37.3398C1589.1 37.3398 1588.66 37.4648 1588.28 37.7148C1587.92 37.9648 1587.64 38.3125 1587.44 38.7578C1587.25 39.2031 1587.16 39.707 1587.16 40.2695H1583.77C1583.77 39.2539 1584.01 38.3242 1584.5 37.4805C1584.98 36.6289 1585.67 35.9531 1586.55 35.4531C1587.43 34.9453 1588.48 34.6914 1589.69 34.6914C1590.89 34.6914 1591.89 34.8867 1592.71 35.2773C1593.54 35.6602 1594.17 36.2148 1594.59 36.9414C1595.02 37.6602 1595.23 38.5195 1595.23 39.5195C1595.23 40.082 1595.14 40.6328 1594.96 41.1719C1594.78 41.7031 1594.53 42.2344 1594.19 42.7656C1593.86 43.2891 1593.46 43.8203 1592.99 44.3594C1592.53 44.8984 1592.01 45.457 1591.44 46.0352L1588.47 49.3633H1595.78ZM1603.03 42.0039H1604.83C1605.41 42.0039 1605.89 41.9062 1606.26 41.7109C1606.64 41.5078 1606.92 41.2266 1607.1 40.8672C1607.28 40.5 1607.38 40.0742 1607.38 39.5898C1607.38 39.1523 1607.29 38.7656 1607.12 38.4297C1606.96 38.0859 1606.7 37.8203 1606.36 37.6328C1606.01 37.4375 1605.58 37.3398 1605.06 37.3398C1604.64 37.3398 1604.26 37.4219 1603.91 37.5859C1603.56 37.75 1603.28 37.9805 1603.07 38.2773C1602.85 38.5742 1602.75 38.9336 1602.75 39.3555H1599.36C1599.36 38.418 1599.61 37.6016 1600.11 36.9062C1600.62 36.2109 1601.3 35.668 1602.15 35.2773C1603 34.8867 1603.94 34.6914 1604.96 34.6914C1606.12 34.6914 1607.13 34.8789 1608 35.2539C1608.87 35.6211 1609.54 36.1641 1610.03 36.8828C1610.51 37.6016 1610.75 38.4922 1610.75 39.5547C1610.75 40.0938 1610.63 40.6172 1610.38 41.125C1610.13 41.625 1609.77 42.0781 1609.3 42.4844C1608.84 42.8828 1608.28 43.2031 1607.61 43.4453C1606.95 43.6797 1606.2 43.7969 1605.37 43.7969H1603.03V42.0039ZM1603.03 44.5703V42.8242H1605.37C1606.3 42.8242 1607.12 42.9297 1607.82 43.1406C1608.53 43.3516 1609.12 43.6562 1609.59 44.0547C1610.07 44.4453 1610.43 44.9102 1610.67 45.4492C1610.91 45.9805 1611.03 46.5703 1611.03 47.2188C1611.03 48.0156 1610.88 48.7266 1610.58 49.3516C1610.27 49.9688 1609.84 50.4922 1609.29 50.9219C1608.74 51.3516 1608.1 51.6797 1607.37 51.9062C1606.63 52.125 1605.83 52.2344 1604.96 52.2344C1604.24 52.2344 1603.54 52.1367 1602.84 51.9414C1602.16 51.7383 1601.53 51.4375 1600.97 51.0391C1600.41 50.6328 1599.97 50.125 1599.63 49.5156C1599.3 48.8984 1599.14 48.168 1599.14 47.3242H1602.53C1602.53 47.7617 1602.64 48.1523 1602.85 48.4961C1603.07 48.8398 1603.37 49.1094 1603.76 49.3047C1604.15 49.5 1604.58 49.5977 1605.06 49.5977C1605.6 49.5977 1606.06 49.5 1606.44 49.3047C1606.83 49.1016 1607.13 48.8203 1607.33 48.4609C1607.54 48.0938 1607.65 47.668 1607.65 47.1836C1607.65 46.5586 1607.53 46.0586 1607.31 45.6836C1607.08 45.3008 1606.76 45.0195 1606.33 44.8398C1605.91 44.6602 1605.41 44.5703 1604.83 44.5703H1603.03Z" fill="#C1BBBB"/>
</svg>
